# xmcd CD database file
#
# Track frame offsets:
#	150
#	32315
#	75680
#	102062
#	124184
#	161418
#	217403
#	238357
#	262152
#	278052
#
# Disc length: 3956 seconds
#
# Revision: 0
# Processed by: cddbd v1.5.2PL0 Copyright (c) Steve Scherf et al.
# Submitted via: CDex 1.51
#
DISCID=8c0f720a
DTITLE=The Danny Mixon Trio - Gemini Moon 2000
DYEAR=2000
DGENRE=Jazz
TTITLE0=Silver Serenade
TTITLE1=What are you doing for the rest of your life
TTITLE2=You alone
TTITLE3=Star Eyes
TTITLE4=Little Sunflower
TTITLE5=You're only as old as you look
TTITLE6=Speak like a child
TTITLE7=Watermelon man
TTITLE8=You're my everything
TTITLE9=Mercy mercy
EXTD=YEAR: 2000
EXTT0=
EXTT1=
EXTT2=
EXTT3=
EXTT4=
EXTT5=
EXTT6=
EXTT7=
EXTT8=
EXTT9=
PLAYORDER=
